<?xml version="1.0" encoding="UTF-8"?>
<svg version="1.1" viewBox="0 0 113.03 169.22" xmlns="http://www.w3.org/2000/svg" xmlnsCc="http://creativecommons.org/ns#" xmlnsDc="http://purl.org/dc/elements/1.1/" xmlnsRdf="http://www.w3.org/1999/02/22-rdf-syntax-ns#">
<metadata>
<rdfRDF>
<ccWork rdfAbout="">
<dcFormat>image/svg+xml</dcFormat>
<dcType rdfResource="http://purl.org/dc/dcmitype/StillImage"/>
<dcTitle/>
</ccWork>
</rdfRDF>
</metadata>
<g transform="translate(-250 -509.12)">
<path d="m306.5 509.12c-31.149 0-56.5 25.351-56.5 56.5 0 0.37083 0.025 0.55698 0.0312 0.71875 2e-3 0.0492-4.3e-4 0.18862 0 0.21875-7e-3 0.0685-0.0312 0.0448-0.0312 0.375 0 19.637 13.441 45.214 26.469 66.938s26.031 39.062 26.031 39.062l4.0625 5.4062 4-5.4375s10.214-13.984 21.594-32.406c11.134-18.024 23.384-40.15 28.469-58.688h0.1875l0.6875-3.2188 0.0312-0.0937 0.0312-0.0937v-0.0625c3.7e-4 -2e-3 0.0378-0.17831 0.0937-0.4375 9e-3 -0.0395 0.0214-0.0156 0.0312-0.0625h-0.0312c0.19401-0.87429 0.38428-1.7422 0.53125-2.5938 2e-3 -0.01-2e-3 -0.0214 0-0.0312 0.51077-2.8339 0.84375-5.5907 0.84375-8.2812 0-0.242-0.0246-0.20329-0.0312-0.3125 1e-3 -0.0423-2e-3 -0.16376 0-0.21875-1e-3 -6e-3 -6.4e-4 -0.14075 0-0.125 7e-3 -0.18707 0.0312-0.35342 0.0312-0.65625 0-31.149-25.383-56.5-56.531-56.5zm0 10c25.744 0 46.531 20.755 46.531 46.5 0 0.11278-0.022 0.3696-0.0312 0.75v0.15625 0.15625c0.0154 0.37688 0.0312 0.45894 0.0312 0.25 0 1.8974-0.24963 4.1082-0.6875 6.5312v0.0312 0.0312c-0.13036 0.75721-0.27964 1.4806-0.4375 2.1875v0.0625c-4e-3 0.0187-0.0753 0.26623-0.125 0.5-0.0183 0.0861-0.01 0.0751-0.0312 0.1875-0.12018 0.51308-0.26946 1.01-0.40625 1.5v0.0312 0.0625c-4.2862 16.54-16.527 39.121-27.688 57.188-7.6721 12.42-13.479 20.808-17.188 26.062-4.2076-5.8209-11.902-16.746-21.406-32.594-12.726-21.22-25.063-47.155-25.063-61.781 0 0.21397 0.0197 0.12717 0.0312-0.3125v-0.125-0.0937c-0.00612-0.43679-0.0312-0.69683-0.0312-0.7813 0-25.745 20.755-46.5 46.5-46.5z" color="#000000" fill="#6c361e" style="block-progression:tb;text-indent:0;text-transform:none"/>
<path d="m356.79 576.8c0.18-0.806 0.336-1.62 0.477-2.439 0.476-2.634 0.753-5.135 0.753-7.434 0-0.149-0.016-0.292-0.022-0.439 7e-3 -0.287 0.022-0.572 0.022-0.859 0-28.447-23.062-51.508-51.508-51.508-28.447 0-51.508 23.061-51.508 51.508 0 0.284 0.017 0.563 0.021 0.846-4e-3 0.152-0.021 0.299-0.021 0.453 0 34.264 51.508 103.02 51.508 103.02s40.504-55.317 49.657-90.638c0.177-0.634 0.338-1.275 0.486-1.92 0.04-0.21 0.09-0.4 0.13-0.59z" fill="#d41400"/>
<path d="m295.21 542.43h22.599v17.352l-4.3639 34.859h-13.975l-4.26-34.859v-17.352zm0.77927 57.51h21.092v18.65h-21.092v-18.65z" fill="#fff"/>
</g>
</svg>
